<svg xmlns="http://www.w3.org/2000/svg" xmlns:xlink="http://www.w3.org/1999/xlink" width="1300" zoomAndPan="magnify" viewBox="0 0 974.88 164.249993" height="219" preserveAspectRatio="xMidYMid meet" version="1.0"><defs><g/></defs><g fill="#d6d6d6" fill-opacity="1"><g transform="translate(80.074189, 123.48658)"><g><path d="M 68.859375 -88.234375 L 68.859375 -65.6875 L 50.140625 -65.6875 L 50.140625 -32.09375 C 50.140625 -28.082031 50.804688 -25.15625 52.140625 -23.3125 C 53.484375 -21.476562 55.9375 -20.5625 59.5 -20.5625 L 68.859375 -20.5625 L 68.859375 -1 C 66.179688 -0.113281 62.722656 0.601562 58.484375 1.15625 C 54.253906 1.71875 50.582031 2 47.46875 2 C 37.65625 2 30.101562 0.21875 24.8125 -3.34375 C 19.519531 -6.90625 16.875 -12.976562 16.875 -21.5625 L 16.875 -65.6875 L 4.515625 -65.6875 L 4.515625 -88.234375 L 18.21875 -88.234375 L 25.40625 -114.984375 L 50.140625 -114.984375 L 50.140625 -88.234375 Z M 68.859375 -88.234375 "/></g></g></g><g fill="#d6d6d6" fill-opacity="1"><g transform="translate(144.749228, 123.48658)"><g><path d="M 63.671875 -90.421875 C 66.234375 -90.421875 68.515625 -90.113281 70.515625 -89.5 C 72.523438 -88.882812 73.53125 -88.519531 73.53125 -88.40625 L 73.53125 -60.5 L 62.84375 -60.5 C 55.9375 -60.5 50.945312 -58.710938 47.875 -55.140625 C 44.8125 -51.578125 43.28125 -46.289062 43.28125 -39.28125 L 43.28125 0 L 10.03125 0 L 10.03125 -88.234375 L 37.265625 -88.234375 L 39.4375 -74.875 C 41.445312 -80 44.625 -83.867188 48.96875 -86.484375 C 53.3125 -89.109375 58.210938 -90.421875 63.671875 -90.421875 Z M 63.671875 -90.421875 "/></g></g></g><g fill="#d6d6d6" fill-opacity="1"><g transform="translate(209.424266, 123.48658)"><g><path d="M 11.203125 -98.609375 L 11.203125 -121.171875 L 44.453125 -121.171875 L 44.453125 -98.609375 Z M 11.203125 0 L 11.203125 -88.234375 L 44.453125 -88.234375 L 44.453125 0 Z M 11.203125 0 "/></g></g></g><g fill="#d6d6d6" fill-opacity="1"><g transform="translate(255.549012, 123.48658)"><g><path d="M 68.1875 -90.25 C 80.101562 -90.25 89.289062 -86.347656 95.75 -78.546875 C 102.21875 -70.742188 105.453125 -59.210938 105.453125 -43.953125 C 105.453125 -28.796875 102.21875 -17.347656 95.75 -9.609375 C 89.289062 -1.867188 80.101562 2 68.1875 2 C 57.9375 2 49.691406 -1.335938 43.453125 -8.015625 L 43.453125 32.921875 L 10.1875 32.921875 L 10.1875 -88.234375 L 37.265625 -88.234375 L 40.109375 -75.703125 C 46.566406 -85.398438 55.925781 -90.25 68.1875 -90.25 Z M 57.828125 -65.6875 C 52.921875 -65.6875 49.242188 -63.957031 46.796875 -60.5 C 44.347656 -57.039062 43.125 -52.53125 43.125 -46.96875 L 43.125 -41.453125 C 43.125 -35.878906 44.347656 -31.335938 46.796875 -27.828125 C 49.242188 -24.316406 52.921875 -22.5625 57.828125 -22.5625 C 67.410156 -22.5625 72.203125 -28.300781 72.203125 -39.78125 L 72.203125 -48.640625 C 72.203125 -60.003906 67.410156 -65.6875 57.828125 -65.6875 Z M 57.828125 -65.6875 "/></g></g></g><g fill="#d6d6d6" fill-opacity="1"><g transform="translate(357.491746, 123.48658)"><g><path d="M 92.921875 0 L 79.21875 -49.140625 L 78.546875 -49.140625 L 64.671875 0 L 32.25 0 L 0 -88.234375 L 35.765625 -88.234375 L 49.140625 -36.09375 L 50.296875 -36.09375 L 64.171875 -88.234375 L 97.265625 -88.234375 L 110.640625 -36.09375 L 111.8125 -36.09375 L 125.34375 -88.234375 L 157.765625 -88.234375 L 125.34375 0 Z M 92.921875 0 "/></g></g></g><g fill="#d6d6d6" fill-opacity="1"><g transform="translate(505.726664, 123.48658)"><g><path d="M 11.203125 -98.609375 L 11.203125 -121.171875 L 44.453125 -121.171875 L 44.453125 -98.609375 Z M 11.203125 0 L 11.203125 -88.234375 L 44.453125 -88.234375 L 44.453125 0 Z M 11.203125 0 "/></g></g></g><g fill="#d6d6d6" fill-opacity="1"><g transform="translate(551.851433, 123.48658)"><g><path d="M 70.859375 -90.25 C 81.109375 -90.25 88.796875 -87.40625 93.921875 -81.71875 C 99.046875 -76.039062 101.609375 -67.851562 101.609375 -57.15625 L 101.609375 0 L 68.359375 0 L 68.359375 -53.140625 C 68.359375 -56.929688 67.378906 -59.96875 65.421875 -62.25 C 63.472656 -64.539062 60.71875 -65.6875 57.15625 -65.6875 C 53.03125 -65.6875 49.6875 -64.347656 47.125 -61.671875 C 44.5625 -58.992188 43.28125 -55.707031 43.28125 -51.8125 L 43.28125 0 L 10.03125 0 L 10.03125 -88.234375 L 37.265625 -88.234375 L 39.4375 -74.875 C 42.894531 -79.550781 47.4375 -83.28125 53.0625 -86.0625 C 58.6875 -88.851562 64.617188 -90.25 70.859375 -90.25 Z M 70.859375 -90.25 "/></g></g></g><g fill="#d6d6d6" fill-opacity="1"><g transform="translate(653.794167, 123.48658)"><g><path d="M 109.296875 -104.78125 C 109.296875 -97.988281 107.597656 -92.753906 104.203125 -89.078125 C 100.804688 -85.398438 95.707031 -82.671875 88.90625 -80.890625 C 92.132812 -78.441406 94.664062 -75.570312 96.5 -72.28125 C 98.34375 -68.988281 99.265625 -65.507812 99.265625 -61.84375 C 99.265625 -52.476562 95.726562 -45.398438 88.65625 -40.609375 C 81.582031 -35.816406 72.753906 -33.421875 62.171875 -33.421875 L 49.46875 -33.421875 C 42.445312 -33.421875 38.9375 -31.804688 38.9375 -28.578125 C 38.9375 -27.015625 39.71875 -25.757812 41.28125 -24.8125 C 42.84375 -23.863281 45.570312 -23.390625 49.46875 -23.390625 L 79.546875 -23.390625 C 89.359375 -23.390625 96.769531 -20.828125 101.78125 -15.703125 C 106.789062 -10.578125 109.296875 -3.726562 109.296875 4.84375 C 109.296875 11.195312 107.625 16.65625 104.28125 21.21875 C 100.9375 25.789062 96.421875 29.242188 90.734375 31.578125 C 85.054688 33.921875 78.878906 35.09375 72.203125 35.09375 L 23.0625 35.09375 C 19.050781 35.09375 15.347656 34.144531 11.953125 32.25 C 8.554688 30.351562 5.851562 27.757812 3.84375 24.46875 C 1.832031 21.1875 0.828125 17.539062 0.828125 13.53125 C 0.828125 9.1875 2.164062 5.257812 4.84375 1.75 C 7.519531 -1.757812 10.863281 -4.40625 14.875 -6.1875 C 12.195312 -8.082031 10.078125 -10.363281 8.515625 -13.03125 C 6.960938 -15.707031 6.1875 -18.601562 6.1875 -21.71875 C 6.1875 -26.070312 7.800781 -30 11.03125 -33.5 C 14.257812 -37.007812 18.269531 -39.378906 23.0625 -40.609375 C 18.71875 -43.398438 15.265625 -46.601562 12.703125 -50.21875 C 10.140625 -53.84375 8.859375 -57.660156 8.859375 -61.671875 C 8.859375 -71.921875 13.007812 -79.242188 21.3125 -83.640625 C 29.613281 -88.046875 40.613281 -90.25 54.3125 -90.25 C 60.332031 -90.25 65.179688 -89.914062 68.859375 -89.25 C 74.316406 -92.695312 77.851562 -95.84375 79.46875 -98.6875 C 81.082031 -101.53125 81.890625 -103.5625 81.890625 -104.78125 Z M 53.984375 -72.859375 C 50.304688 -72.859375 47.296875 -71.910156 44.953125 -70.015625 C 42.617188 -68.128906 41.453125 -65.40625 41.453125 -61.84375 C 41.453125 -58.164062 42.535156 -55.40625 44.703125 -53.5625 C 46.878906 -51.726562 49.972656 -50.8125 53.984375 -50.8125 C 57.992188 -50.8125 61.140625 -51.726562 63.421875 -53.5625 C 65.703125 -55.40625 66.84375 -58.164062 66.84375 -61.84375 C 66.84375 -65.507812 65.703125 -68.257812 63.421875 -70.09375 C 61.140625 -71.9375 57.992188 -72.859375 53.984375 -72.859375 Z M 41.109375 0 C 38.546875 0 36.457031 0.691406 34.84375 2.078125 C 33.226562 3.472656 32.421875 5.453125 32.421875 8.015625 C 32.421875 10.578125 33.253906 12.640625 34.921875 14.203125 C 36.597656 15.765625 38.660156 16.546875 41.109375 16.546875 L 67.1875 16.546875 C 69.632812 16.546875 71.722656 15.789062 73.453125 14.28125 C 75.179688 12.78125 76.046875 10.75 76.046875 8.1875 C 76.046875 5.625 75.207031 3.617188 73.53125 2.171875 C 71.863281 0.722656 69.75 0 67.1875 0 Z M 41.109375 0 "/></g></g></g><g fill="#d6d6d6" fill-opacity="1"><g transform="translate(755.736901, 123.48658)"><g><path d="M 50.46875 -22.5625 L 89.40625 -22.5625 L 89.40625 0 L 3.34375 0 L 3.34375 -10.859375 L 40.4375 -65.6875 L 5.34375 -65.6875 L 5.34375 -88.234375 L 87.90625 -88.234375 L 87.90625 -77.875 Z M 50.46875 -22.5625 "/></g></g></g><g fill="#d6d6d6" fill-opacity="1"><g transform="translate(839.129331, 123.48658)"><g><path d="M 10.1875 0 L 10.1875 -33.265625 L 45.625 -33.265625 L 45.625 0 Z M 10.1875 0 "/></g></g></g></svg>