<svg width="90" height="16" viewBox="0 0 90 16" fill="none" xmlns="http://www.w3.org/2000/svg">
<g id="Group 1">
<g id="CYCLING">
<path id="Vector" d="M74.3872 15.1215C73.0039 15.1215 71.7886 14.8185 70.7412 14.2125C69.7004 13.5999 68.8869 12.7304 68.3007 11.604C67.721 10.471 67.4312 9.13049 67.4312 7.5825C67.4312 5.9884 67.7342 4.62815 68.3402 3.50174C68.9528 2.36875 69.7795 1.50254 70.8203 0.903102C71.861 0.303669 73.0303 0.00395203 74.3279 0.00395203C75.1579 0.00395203 75.9319 0.125815 76.6499 0.36954C77.3679 0.606679 78.0069 0.949212 78.5668 1.39714C79.1267 1.83848 79.5812 2.36216 79.9303 2.96818C80.286 3.56762 80.5133 4.23292 80.6121 4.9641H77.4601C77.3613 4.61498 77.2197 4.30538 77.0353 4.03531C76.8574 3.75864 76.6367 3.52809 76.3732 3.34365C76.1098 3.15262 75.81 3.00771 75.4741 2.9089C75.1447 2.8035 74.7792 2.75081 74.3773 2.75081C73.6264 2.75081 72.9644 2.93854 72.3913 3.31401C71.8248 3.68289 71.3802 4.22633 71.0574 4.94434C70.7412 5.66234 70.5831 6.53185 70.5831 7.55286C70.5831 8.57387 70.7412 9.44338 71.0574 10.1614C71.3736 10.8794 71.8149 11.4294 72.3814 11.8115C72.9545 12.1869 73.6297 12.3747 74.407 12.3747C75.1118 12.3747 75.7112 12.2495 76.2053 11.9992C76.7059 11.7423 77.088 11.3833 77.3514 10.9222C77.6215 10.4611 77.7566 9.91766 77.7566 9.29187L78.3889 9.39068H74.6046V7.04894H80.7603V8.90652C80.7603 10.1976 80.4869 11.3076 79.9402 12.2363C79.3935 13.1651 78.6392 13.8798 77.6775 14.3805C76.7224 14.8745 75.6256 15.1215 74.3872 15.1215Z" fill="black"/>
<path id="Vector_2" d="M66.6103 0.201569V14.9239H63.9227L57.5298 5.66563H57.4014V14.9239H54.2988V0.201569H57.0259L63.3793 9.45985H63.5077V0.201569H66.6103Z" fill="black"/>
<path id="Vector_3" d="M53.2112 0.201569V14.9239H50.1086V0.201569H53.2112Z" fill="black"/>
<path id="Vector_4" d="M40.0886 14.9239V0.201569H43.1912V12.3549H49.505V14.9239H40.0886Z" fill="black"/>
<path id="Vector_5" d="M32.9241 15.1215C31.6199 15.1215 30.4507 14.8251 29.4165 14.2323C28.3823 13.6394 27.5655 12.7798 26.966 11.6534C26.3666 10.527 26.0669 9.16672 26.0669 7.57262C26.0669 5.96535 26.3666 4.59851 26.966 3.4721C27.5721 2.33911 28.3922 1.47948 29.4264 0.893221C30.4671 0.300375 31.6331 0.00395203 32.9241 0.00395203C33.7805 0.00395203 34.5742 0.125815 35.3054 0.36954C36.0366 0.606679 36.6821 0.955799 37.242 1.4169C37.8085 1.87142 38.2696 2.43133 38.6254 3.09663C38.9811 3.75535 39.2083 4.50958 39.3071 5.35933H36.165C36.1058 4.95751 35.9872 4.59522 35.8093 4.27244C35.6381 3.94967 35.4108 3.6763 35.1276 3.45234C34.8509 3.22838 34.5314 3.05711 34.1691 2.93854C33.8134 2.81338 33.4215 2.75081 32.9933 2.75081C32.2424 2.75081 31.5804 2.94183 31.0073 3.32389C30.4408 3.69936 29.9994 4.2461 29.6833 4.9641C29.3737 5.67551 29.2189 6.54502 29.2189 7.57262C29.2189 8.61998 29.377 9.50266 29.6931 10.2207C30.0093 10.9321 30.4507 11.4689 31.0172 11.8312C31.5837 12.1935 32.2391 12.3747 32.9834 12.3747C33.3984 12.3747 33.7838 12.3187 34.1395 12.2067C34.4952 12.0947 34.8114 11.9333 35.088 11.7225C35.3647 11.5118 35.5953 11.2549 35.7797 10.9518C35.9707 10.6422 36.0992 10.2898 36.165 9.8946H39.3071C39.2281 10.5731 39.0272 11.2252 38.7044 11.851C38.3882 12.4768 37.9568 13.0367 37.41 13.5307C36.8633 14.0182 36.2144 14.4068 35.4635 14.6967C34.7126 14.9799 33.8661 15.1215 32.9241 15.1215Z" fill="black"/>
<path id="Vector_6" d="M13.1521 0.201569H16.64L19.9995 6.54502H20.1378L23.4973 0.201569H26.9852L21.6199 9.72663V14.9239H18.5272V9.72663L13.1521 0.201569Z" fill="black"/>
<path id="Vector_7" d="M6.85725 15.1215C5.55299 15.1215 4.38377 14.8251 3.34958 14.2322C2.31539 13.6394 1.49858 12.7798 0.89915 11.6534C0.299717 10.527 0 9.1667 0 7.57261C0 5.96533 0.299717 4.59849 0.89915 3.47209C1.50517 2.33909 2.32527 1.47946 3.35946 0.893206C4.40024 0.30036 5.56617 0.00393677 6.85725 0.00393677C7.71359 0.00393677 8.50734 0.1258 9.23852 0.369525C9.9697 0.606664 10.6152 0.955784 11.1751 1.41689C11.7416 1.8714 12.2027 2.43131 12.5585 3.09662C12.9142 3.75534 13.1414 4.50957 13.2402 5.35931H10.0981C10.0389 4.9575 9.92029 4.5952 9.74244 4.27243C9.57117 3.94966 9.34391 3.67629 9.06066 3.45232C8.784 3.22836 8.46452 3.05709 8.10223 2.93852C7.74652 2.81337 7.35458 2.75079 6.92642 2.75079C6.17548 2.75079 5.51347 2.94182 4.94038 3.32387C4.37389 3.69934 3.93255 4.24608 3.61636 4.96408C3.30676 5.6755 3.15196 6.54501 3.15196 7.57261C3.15196 8.61997 3.31006 9.50265 3.62624 10.2207C3.94243 10.9321 4.38377 11.4689 4.95026 11.8312C5.51676 12.1935 6.17219 12.3747 6.91654 12.3747C7.33153 12.3747 7.71688 12.3187 8.07259 12.2067C8.4283 12.0947 8.74448 11.9333 9.02114 11.7225C9.2978 11.5117 9.52835 11.2548 9.7128 10.9518C9.90382 10.6422 10.0323 10.2898 10.0981 9.89459H13.2402C13.1612 10.5731 12.9603 11.2252 12.6375 11.851C12.3213 12.4768 11.8899 13.0367 11.3431 13.5307C10.7964 14.0182 10.1475 14.4068 9.39661 14.6966C8.64567 14.9799 7.79922 15.1215 6.85725 15.1215Z" fill="black"/>
</g>
<path id="&#194;&#174;" d="M86.0719 7.84138C85.5342 7.84138 85.0289 7.73932 84.5559 7.53519C84.0829 7.33107 83.6672 7.04977 83.3088 6.69131C82.9503 6.32787 82.669 5.90966 82.4649 5.43669C82.2608 4.96372 82.1587 4.45589 82.1587 3.91322C82.1587 3.37553 82.2608 2.87019 82.4649 2.39722C82.669 1.92425 82.9503 1.50853 83.3088 1.15007C83.6672 0.791606 84.0829 0.510312 84.5559 0.306187C85.0289 0.102062 85.5342 0 86.0719 0C86.6146 0 87.1224 0.102062 87.5954 0.306187C88.0684 0.510312 88.4841 0.791606 88.8425 1.15007C89.206 1.50853 89.4898 1.92425 89.6939 2.39722C89.898 2.87019 90.0001 3.37553 90.0001 3.91322C90.0001 4.45589 89.898 4.96372 89.6939 5.43669C89.4898 5.90966 89.206 6.32787 88.8425 6.69131C88.4841 7.04977 88.0684 7.33107 87.5954 7.53519C87.1224 7.73932 86.6146 7.84138 86.0719 7.84138ZM86.0868 6.52701C86.5598 6.52701 86.993 6.40753 87.3863 6.16855C87.7846 5.92958 88.1032 5.61343 88.3422 5.22012C88.5812 4.82183 88.7006 4.38619 88.7006 3.91322C88.7006 3.43029 88.5812 2.99217 88.3422 2.59886C88.1032 2.20056 87.7846 1.88442 87.3863 1.65042C86.993 1.41643 86.5598 1.29943 86.0868 1.29943C85.6039 1.29943 85.1633 1.41643 84.765 1.65042C84.3717 1.88442 84.058 2.20056 83.8241 2.59886C83.5901 2.99217 83.4731 3.43029 83.4731 3.91322C83.4731 4.38619 83.5901 4.82183 83.8241 5.22012C84.058 5.61343 84.3717 5.92958 84.765 6.16855C85.1633 6.40753 85.6039 6.52701 86.0868 6.52701ZM84.8322 5.6906V2.13584H86.3258C86.7092 2.13584 87.0054 2.24288 87.2145 2.45697C87.4236 2.67105 87.5356 2.95732 87.5506 3.31578C87.5506 3.52986 87.5008 3.72901 87.4012 3.91322C87.3016 4.09245 87.1473 4.24181 86.9382 4.3613L87.5954 5.6906H86.8336L86.2511 4.48079H85.5043V5.6906H84.8322ZM85.5043 3.85348H86.3557C86.5051 3.85348 86.627 3.80369 86.7216 3.70412C86.8162 3.59957 86.8635 3.47012 86.8635 3.31578C86.8635 3.14153 86.8212 3.0096 86.7366 2.91998C86.6569 2.82539 86.5299 2.77809 86.3557 2.77809H85.5043V3.85348Z" fill="black"/>
</g>
</svg>
